<svg version="1.0" xmlns="http://www.w3.org/2000/svg"
 width="700.000000pt" height="250.000000pt" viewBox="0 0 700.000000 250.000000"
 preserveAspectRatio="xMidYMid meet">

<g transform="translate(0.000000,250.000000) scale(0.100000,-0.100000)"
fill="#000000" stroke="none">
<path d="M4369 1897 c-24 -13 -54 -38 -66 -56 -48 -71 -54 -220 -11 -309 52
-109 218 -137 310 -54 56 51 68 84 68 196 0 111 -8 138 -58 189 -60 61 -163
76 -243 34z m153 -81 c27 -20 38 -61 38 -141 0 -114 -24 -155 -88 -155 -42 0
-51 5 -75 40 -13 18 -17 46 -17 113 0 88 14 139 42 150 25 10 83 6 100 -7z"/>
<path d="M3690 1675 l0 -235 56 0 55 0 -3 154 c-2 85 -1 153 2 151 3 -2 28
-71 55 -154 l50 -151 41 0 41 0 48 143 c26 78 51 148 55 155 4 8 5 -56 2 -142
l-5 -156 57 0 56 0 0 235 0 235 -73 0 -72 0 -54 -162 -54 -163 -53 160 c-30
88 -54 161 -54 163 0 1 -34 2 -75 2 l-75 0 0 -235z"/>
<path d="M4740 1675 l0 -235 55 0 54 0 3 145 3 145 82 -142 82 -143 58 -3 58
-3 -3 236 -3 235 -54 0 -54 0 -3 -142 -3 -143 -77 133 c-43 74 -78 138 -78
143 0 5 -27 9 -60 9 l-60 0 0 -235z"/>
<path d="M5210 1675 l0 -235 55 0 54 0 3 93 c3 86 4 92 25 95 18 3 30 -13 75
-92 l53 -96 68 0 c52 0 66 3 61 13 -4 6 -38 62 -76 123 -37 62 -68 116 -68
121 0 5 28 49 61 99 34 49 64 95 66 102 4 10 -10 12 -62 10 l-68 -3 -49 -87
c-35 -63 -55 -88 -69 -88 -17 0 -19 8 -19 90 l0 90 -55 0 -55 0 0 -235z"/>
<path d="M5640 1675 l0 -235 170 0 170 0 0 40 0 40 -110 0 -110 0 0 60 0 60
90 0 90 0 0 45 0 45 -90 0 -90 0 0 50 0 50 110 0 110 0 0 40 0 40 -170 0 -170
0 0 -235z"/>
<path d="M6070 1757 l80 -154 0 -81 0 -82 55 0 55 0 0 85 0 85 69 129 c96 180
95 171 24 171 l-58 0 -44 -100 c-24 -55 -46 -98 -49 -95 -3 2 -24 46 -47 97
l-43 93 -61 3 -61 3 80 -154z"/>
<path d="M1244 1885 c-4 -9 -2 -21 4 -27 16 -16 47 -5 47 17 0 26 -42 34 -51
10z"/>
<path d="M2715 1876 c-91 -43 -145 -121 -145 -212 0 -38 -5 -51 -30 -74 -23
-22 -30 -37 -30 -67 0 -52 31 -82 96 -92 l49 -8 -78 -37 c-94 -45 -176 -63
-318 -72 -107 -7 -248 7 -295 28 -12 6 -28 24 -34 41 -5 17 -17 38 -26 48 -12
14 -13 25 -6 52 7 24 6 39 -1 46 -20 20 -47 12 -58 -16 l-11 -28 -34 40 c-18
22 -34 44 -34 48 0 5 -10 7 -22 5 -18 -2 -23 -9 -23 -30 1 -32 -7 -35 -25 -13
-18 21 -54 15 -59 -10 -2 -13 8 -29 30 -49 21 -18 26 -26 14 -21 -36 13 -50
10 -53 -10 -2 -16 8 -26 40 -42 33 -17 38 -22 21 -22 -12 -1 -25 -6 -28 -11
-13 -21 17 -40 62 -40 36 0 54 -7 97 -40 134 -101 377 -153 617 -130 106 10
176 22 211 35 11 5 17 -3 21 -28 3 -19 14 -54 25 -78 29 -64 82 -190 82 -195
0 -2 -8 -4 -18 -4 -44 0 -70 -73 -36 -101 34 -28 300 0 386 41 61 28 142 115
176 187 20 46 27 78 30 149 7 163 -45 278 -163 355 l-61 41 -14 76 c-7 43 -19
93 -27 112 -33 82 -136 150 -228 150 -32 0 -68 -9 -100 -24z m176 -11 c75 -27
148 -117 149 -182 0 -20 -5 -23 -39 -23 -22 0 -44 -6 -51 -15 -16 -19 -5 -34
12 -17 30 30 98 1 98 -42 0 -45 -14 -51 -108 -51 -81 0 -94 -3 -160 -36 l-72
-35 0 31 c0 28 4 33 39 44 42 12 87 57 97 96 9 35 -13 91 -47 119 -44 38 -112
46 -174 21 -13 -5 -6 6 19 33 64 67 150 87 237 57z m-113 -115 c38 -23 64 -75
55 -111 -9 -39 -53 -79 -95 -85 -38 -7 -38 -7 -38 -55 l0 -49 -59 0 c-73 0
-111 25 -111 72 0 33 24 68 45 68 18 0 24 20 20 64 -6 52 10 85 47 101 47 20
98 18 136 -5z m-997 -242 c23 -29 46 -53 52 -53 6 0 15 15 19 33 12 46 30 41
22 -7 -5 -32 -2 -45 15 -67 27 -34 27 -88 1 -114 -22 -22 -26 -21 -81 22 -28
21 -49 28 -85 30 l-49 1 43 4 c58 6 53 25 -14 52 -30 13 -53 25 -50 28 2 2 27
-5 55 -17 78 -34 81 -19 8 40 -37 29 -67 58 -67 62 0 12 12 5 83 -49 31 -24
59 -43 62 -43 13 0 2 24 -30 66 -32 42 -43 64 -30 64 2 0 23 -24 46 -52z
m1345 2 c58 -33 103 -85 136 -156 19 -41 22 -67 23 -159 0 -105 -2 -114 -33
-177 -53 -109 -170 -198 -259 -198 -21 0 -23 3 -18 38 4 29 -4 63 -39 152 -24
63 -48 113 -53 110 -10 -6 -12 1 39 -134 39 -106 40 -109 25 -142 -20 -40 -38
-46 -142 -42 -77 3 -80 4 -80 27 0 33 29 50 56 33 11 -7 23 -11 25 -9 3 2 -25
73 -61 158 -36 84 -65 164 -65 177 0 71 63 133 135 134 50 1 119 -37 130 -72
6 -18 25 -29 25 -15 0 13 -30 62 -44 74 -13 11 -10 16 17 41 18 16 29 32 25
36 -4 3 -23 -7 -42 -24 -32 -28 -38 -30 -70 -21 -69 19 -155 -23 -182 -87 -10
-25 -23 -36 -51 -44 -88 -24 -184 -32 -343 -27 -166 5 -234 17 -349 63 l-40
16 22 31 c12 18 22 33 22 34 1 1 17 -3 38 -9 20 -6 34 -15 31 -19 -6 -11 14
-49 26 -49 6 0 6 9 0 25 -8 22 -7 25 11 25 14 0 19 -5 16 -13 -3 -8 5 -27 19
-43 26 -32 35 -12 9 22 -8 10 -14 21 -15 24 0 3 69 5 153 6 217 1 267 16 535
161 l107 58 87 -2 c66 -2 91 1 100 12 17 19 15 19 74 -15z"/>
<path d="M2622 1708 c-28 -28 -2 -88 38 -88 40 0 66 60 38 88 -7 7 -24 12 -38
12 -14 0 -31 -5 -38 -12z m65 -24 c3 -8 -2 -23 -11 -32 -15 -15 -17 -15 -32 0
-21 21 -11 48 16 48 11 0 23 -7 27 -16z"/>
<path d="M2646 1683 c-11 -11 -6 -23 9 -23 8 0 15 4 15 9 0 13 -16 22 -24 14z"/>
<path d="M1264 1803 c14 -69 36 -224 40 -283 2 -36 18 -153 35 -259 l31 -195
-27 -39 c-16 -21 -35 -52 -45 -69 -10 -18 -19 -25 -23 -18 -5 8 -75 9 -246 4
-239 -7 -240 -7 -263 15 -31 29 -126 53 -126 32 0 -5 19 -14 43 -19 24 -6 52
-21 63 -34 l19 -22 -29 22 c-63 48 -146 12 -146 -63 0 -73 84 -111 143 -65 14
11 34 20 45 20 14 0 22 8 24 23 3 22 5 22 233 30 228 7 230 7 248 -15 l18 -21
17 24 c9 13 26 41 38 64 15 30 27 41 48 43 28 4 28 4 22 55 -17 133 -77 494
-85 512 -5 11 -16 67 -25 125 -25 155 -26 160 -43 160 -11 0 -13 -7 -9 -27z
m-551 -895 l22 -23 -37 -3 c-30 -3 -38 -7 -38 -22 0 -11 8 -24 18 -29 16 -10
16 -10 0 -11 -22 0 -58 34 -58 55 0 8 9 24 20 35 26 26 45 25 73 -2z m460 5
c-24 -2 -62 -2 -85 0 -24 2 -5 4 42 4 47 0 66 -2 43 -4z m-336 -9 c-3 -3 -12
-4 -19 -1 -8 3 -5 6 6 6 11 1 17 -2 13 -5z"/>
<path d="M6195 1313 c-112 -21 -169 -89 -145 -173 18 -63 59 -89 210 -135 77
-23 110 -57 110 -111 0 -38 -5 -46 -37 -71 -30 -23 -46 -28 -97 -28 -85 0
-136 27 -156 83 -16 46 -50 60 -50 21 0 -102 142 -173 271 -135 71 20 110 60
116 119 10 83 -43 136 -172 172 -138 40 -180 88 -140 164 39 77 209 71 250 -9
8 -16 15 -36 15 -45 0 -8 9 -15 20 -15 26 0 27 44 1 86 -29 48 -133 89 -196
77z"/>
<path d="M3795 1296 c-49 -21 -85 -71 -85 -116 0 -81 44 -123 171 -160 89 -26
132 -51 147 -85 19 -42 14 -65 -21 -100 -75 -75 -241 -45 -265 48 -6 23 -15
33 -32 35 -21 3 -22 1 -16 -30 16 -81 93 -133 201 -132 122 0 185 51 185 147
0 77 -54 120 -207 166 -53 15 -78 29 -98 53 -68 81 32 173 160 146 51 -11 95
-55 95 -94 0 -19 5 -24 26 -24 24 0 25 3 19 33 -16 79 -85 127 -185 126 -36 0
-79 -6 -95 -13z"/>
<path d="M4190 1035 l0 -275 176 0 c157 0 175 2 170 16 -3 9 -6 18 -6 20 0 2
-68 4 -150 4 l-151 0 3 108 3 107 130 5 c113 4 130 7 133 23 3 15 -8 17 -126
17 -150 0 -142 -6 -142 105 0 112 -10 105 156 105 137 0 144 1 144 20 0 19 -7
20 -170 20 l-170 0 0 -275z"/>
<path d="M4640 1036 c0 -269 0 -276 20 -276 19 0 20 7 20 126 l0 126 103 -4
c147 -5 177 -32 177 -155 0 -66 13 -93 44 -93 23 0 23 1 10 38 -7 20 -13 61
-14 90 0 62 -20 106 -57 125 l-26 14 27 18 c82 54 73 195 -16 241 -24 13 -67
19 -160 22 l-128 5 0 -277z m267 211 c23 -12 36 -29 45 -58 10 -37 10 -46 -8
-77 -27 -52 -54 -62 -166 -62 l-98 0 0 111 0 111 98 -4 c65 -3 108 -10 129
-21z"/>
<path d="M5098 1304 c-4 -3 16 -92 44 -197 94 -366 88 -347 112 -347 18 0 25
13 45 83 13 45 41 138 61 207 21 69 41 139 45 155 4 17 9 26 10 20 2 -5 29
-98 60 -205 81 -280 74 -262 98 -258 18 2 25 17 43 88 12 47 43 166 68 264 25
99 46 183 46 188 0 5 -10 8 -22 6 -20 -3 -27 -24 -75 -213 -29 -116 -53 -218
-53 -227 0 -51 -21 2 -74 190 -72 254 -71 252 -94 252 -19 0 -51 -93 -129
-373 l-27 -97 -58 227 c-31 126 -58 231 -58 236 0 8 -34 10 -42 1z"/>
<path d="M5847 1303 c-4 -3 -7 -127 -7 -275 l0 -268 25 0 25 0 0 275 c0 260
-1 275 -18 275 -10 0 -22 -3 -25 -7z"/>
<path d="M1405 960 c20 -8 20 -9 -1 -9 -13 -1 -26 -13 -37 -36 -23 -49 -21
-82 8 -110 54 -55 145 -21 145 52 0 19 -4 43 -10 53 -13 24 -76 60 -103 59
-21 0 -21 -1 -2 -9z m81 -116 c-7 -25 -44 -41 -71 -30 -24 9 -41 54 -26 69 12
12 15 10 40 -33 8 -12 12 -12 25 -1 9 7 16 23 16 35 1 20 1 20 11 3 6 -10 8
-29 5 -43z"/>
</g>
</svg>
