<?xml version="1.0" standalone="no"?>
<!DOCTYPE svg PUBLIC "-//W3C//DTD SVG 20010904//EN"
 "http://www.w3.org/TR/2001/REC-SVG-20010904/DTD/svg10.dtd">
<svg version="1.0" xmlns="http://www.w3.org/2000/svg"
 width="762.000000pt" height="828.000000pt" viewBox="0 0 762.000000 828.000000"
 preserveAspectRatio="xMidYMid meet">

<g transform="translate(0.000000,828.000000) scale(0.100000,-0.100000)"
fill="#000000" stroke="none">
<path d="M2548 5369 c-55 -31 -36 -99 27 -99 70 0 90 66 28 99 -26 13 -33 13
-55 0z"/>
<path d="M5741 5369 c-154 -19 -311 -135 -387 -285 -38 -76 -39 -79 -40 -193
l0 -115 -47 -29 c-51 -31 -97 -108 -97 -161 1 -67 61 -150 129 -179 14 -5 67
-13 116 -16 l90 -6 -121 -62 c-287 -146 -527 -192 -943 -180 -205 6 -299 20
-400 61 -51 20 -55 25 -71 74 -9 28 -33 73 -54 98 -20 26 -36 52 -36 58 0 6 8
41 17 79 17 66 17 67 -4 88 -46 46 -114 11 -129 -66 -3 -19 -10 -35 -14 -35
-4 0 -41 45 -81 100 -79 107 -103 123 -144 96 -35 -23 -34 -76 1 -122 15 -19
24 -34 22 -34 -2 0 -38 25 -78 55 -40 30 -77 55 -82 55 -15 0 -58 -48 -58 -64
0 -33 25 -65 86 -111 35 -27 62 -50 61 -52 -2 -1 -32 8 -66 22 -69 27 -88 24
-97 -12 -11 -44 9 -66 96 -103 l81 -35 -47 -7 c-68 -10 -83 -40 -39 -83 22
-23 32 -25 112 -25 l88 0 110 -81 c122 -91 186 -123 354 -180 346 -118 769
-142 1202 -69 63 11 138 27 165 35 66 20 64 21 64 -25 0 -50 15 -90 129 -355
112 -257 108 -245 82 -245 -38 0 -97 -31 -114 -59 -9 -16 -17 -50 -17 -75 0
-36 6 -52 29 -78 l29 -33 174 3 c109 2 190 8 218 17 25 7 79 16 120 20 118 10
195 32 293 82 151 78 286 229 358 401 65 158 87 368 53 529 -51 246 -204 459
-395 551 l-78 37 -1 50 c0 28 -7 61 -15 75 -8 14 -14 48 -15 75 0 28 -7 78
-15 110 -70 274 -313 439 -594 404z m233 -63 c134 -48 224 -128 282 -251 28
-58 59 -182 49 -193 -1 -1 -22 3 -47 9 -60 16 -108 5 -154 -35 -32 -28 -37
-37 -26 -47 8 -9 17 -10 26 -4 59 44 73 50 112 49 115 -2 164 -138 78 -213
-40 -36 -73 -39 -161 -16 -121 33 -253 -5 -470 -132 l-43 -25 0 76 c0 74 1 76
25 76 84 0 206 86 245 173 24 52 26 141 5 191 -25 59 -89 120 -158 152 -82 37
-196 39 -271 6 -27 -12 -51 -20 -53 -18 -8 8 82 103 134 140 121 86 292 111
427 62z m-258 -225 c131 -60 187 -187 130 -299 -40 -79 -110 -126 -208 -140
l-53 -7 -3 -103 -3 -102 -107 0 c-154 1 -206 24 -243 105 -32 72 -3 142 79
185 l47 25 2 110 c2 61 5 120 8 132 6 27 74 82 123 99 56 20 179 17 228 -5z
m-2061 -535 c83 -110 108 -135 120 -116 3 4 14 38 26 75 20 64 40 88 60 68 6
-6 4 -25 -6 -52 -20 -57 -19 -100 3 -132 53 -80 63 -97 71 -126 17 -60 -22
-148 -78 -177 -26 -14 -30 -12 -127 59 l-99 74 -92 1 c-50 0 -94 4 -97 9 -6 9
72 21 136 21 41 0 58 15 37 34 -8 7 -59 32 -114 55 -192 83 -196 102 -6 31 73
-28 137 -48 142 -45 22 14 2 36 -121 130 -97 75 -129 106 -130 123 0 28 11 28
47 -1 178 -146 273 -205 273 -169 0 5 -36 57 -80 115 -44 59 -80 113 -80 122
0 37 36 7 115 -99z m2784 38 c58 -29 95 -56 162 -123 73 -73 94 -102 132 -181
73 -151 92 -230 91 -390 -1 -155 -20 -245 -80 -370 -39 -82 -123 -199 -183
-253 -51 -46 -168 -114 -238 -138 -58 -20 -193 -37 -193 -25 0 4 7 17 15 30 9
13 18 45 20 72 5 43 -5 77 -88 294 -67 177 -97 246 -110 248 -11 2 -17 -3 -17
-14 0 -9 39 -121 86 -248 51 -135 87 -246 87 -268 0 -45 -29 -96 -71 -124 -33
-23 -113 -32 -301 -36 -87 -2 -95 0 -112 21 -41 51 -7 131 55 131 18 0 45 -9
59 -20 36 -28 61 -27 53 3 -3 13 -63 156 -132 318 -141 327 -151 364 -119 460
26 76 112 161 185 183 30 9 70 16 90 16 100 0 219 -70 260 -154 25 -53 37 -63
53 -47 17 17 -36 113 -84 154 l-38 33 65 58 c37 33 64 65 64 77 0 23 -23 25
-41 2 -8 -9 -40 -38 -71 -64 l-57 -47 -48 15 c-72 22 -185 13 -249 -20 -63
-32 -150 -125 -165 -178 -7 -21 -18 -44 -24 -49 -7 -6 -62 -22 -121 -35 -314
-72 -699 -83 -1007 -29 -115 20 -301 74 -411 120 l-87 37 33 27 c19 16 43 47
53 70 13 29 23 40 34 36 9 -2 36 -12 60 -21 241 -88 820 -75 1115 26 111 38
274 115 421 199 197 113 269 149 334 170 70 22 182 27 228 9 64 -24 144 -8
187 40 11 12 21 21 24 21 3 0 39 -16 81 -36z"/>
<path d="M5463 5003 c-36 -7 -73 -59 -73 -103 0 -80 77 -128 154 -96 86 36 80
162 -9 196 -27 10 -33 10 -72 3z m93 -79 c10 -39 -3 -70 -36 -84 -25 -10 -34
-10 -55 4 -68 45 -20 141 58 114 16 -6 30 -20 33 -34z"/>
<path d="M5464 4916 c-10 -26 4 -48 28 -44 17 2 23 10 23 28 0 18 -6 26 -23
28 -13 2 -25 -3 -28 -12z"/>
<path d="M4115 4101 c-7 -13 35 -99 52 -105 24 -10 27 25 5 70 -21 41 -44 56
-57 35z"/>
<path d="M4225 4079 c-9 -14 61 -119 80 -119 26 0 24 15 -12 73 -33 55 -54 69
-68 46z"/>
<path d="M2587 5232 c-25 -3 -27 -6 -21 -40 3 -20 25 -158 48 -307 29 -181 39
-275 33 -286 -6 -10 15 -171 67 -499 l76 -484 -92 -121 c-70 -92 -91 -126 -90
-148 1 -15 -3 -29 -10 -32 -7 -2 -161 -9 -343 -15 -181 -5 -403 -13 -492 -16
-103 -4 -163 -3 -163 3 0 6 180 15 463 22 254 8 479 16 501 20 l38 6 -19 23
-19 24 -498 -17 -498 -17 -29 35 c-43 52 -120 85 -218 93 -53 5 -81 3 -81 -3
0 -20 29 -34 90 -44 105 -17 160 -54 186 -126 16 -46 17 -63 4 -63 -5 0 -10
11 -10 23 0 33 -53 103 -92 123 -19 10 -57 18 -89 18 -103 1 -179 -76 -179
-184 0 -57 15 -93 57 -132 74 -70 177 -64 261 15 25 24 43 32 75 33 23 1 46 2
51 3 5 0 6 19 2 40 l-6 40 42 5 c24 3 242 11 486 17 l442 12 29 -27 c19 -18
27 -34 24 -47 -4 -13 0 -19 10 -19 19 0 97 96 97 120 0 10 7 20 15 24 8 3 15
15 15 27 0 11 14 40 31 64 28 38 36 43 80 47 27 3 52 8 56 12 5 5 -157 1070
-174 1143 -3 13 -9 20 -14 18 -11 -8 -12 -4 -64 329 -25 160 -46 290 -48 291
-1 0 -14 -1 -30 -3z m167 -1748 c-26 -44 -49 -81 -50 -83 -2 -1 -8 -1 -14 1
-6 2 15 40 46 86 32 45 59 80 61 78 2 -2 -17 -39 -43 -82z m-52 -139 c0 -5 -5
-11 -11 -13 -6 -2 -11 4 -11 13 0 9 5 15 11 13 6 -2 11 -8 11 -13z m-1296 -49
c19 -19 34 -39 34 -45 0 -7 -20 -11 -51 -11 -66 0 -89 -13 -89 -50 0 -37 26
-63 56 -56 12 3 25 2 29 -4 8 -14 -39 -23 -79 -16 -72 14 -110 106 -69 166 27
40 45 49 92 50 36 0 49 -6 77 -34z m-56 -101 c0 -8 -4 -15 -9 -15 -13 0 -22
16 -14 24 11 11 23 6 23 -9z"/>
<path d="M2867 3421 c-32 -5 -50 -18 -32 -22 18 -5 105 13 105 21 0 11 -13 11
-73 1z"/>
<path d="M2910 3395 c-8 -2 -32 -6 -52 -10 -24 -4 -38 -11 -38 -21 0 -8 -13
-28 -29 -45 -44 -46 -60 -124 -37 -183 57 -149 255 -167 334 -31 18 33 22 52
20 101 -5 75 -39 127 -104 156 -24 10 -44 23 -44 28 0 10 -19 11 -50 5z m110
-137 c49 -81 -3 -174 -96 -171 -73 2 -126 72 -104 138 10 31 13 33 35 23 13
-6 29 -23 35 -39 7 -15 20 -35 31 -45 17 -15 20 -16 44 0 22 14 25 24 25 71 0
30 2 55 5 55 3 0 14 -15 25 -32z m-70 -54 c0 -9 -5 -14 -12 -12 -18 6 -21 28
-4 28 9 0 16 -7 16 -16z"/>
</g>
</svg>
